<?xml version="1.0" encoding="UTF-8"?>
<svg xmlns="http://www.w3.org/2000/svg" xmlns:xlink="http://www.w3.org/1999/xlink" width="18px" height="18px" viewBox="0 0 18 18" version="1.1">
<g id="surface1">
<path style=" stroke:none;fill-rule:nonzero;fill:rgb(90.980392%,25.490196%,25.882353%);fill-opacity:1;" d="M 18.007812 9.003906 C 18.007812 13.976562 13.976562 18.007812 9.003906 18.007812 C 4.03125 18.007812 0 13.976562 0 9.003906 C 0 4.03125 4.03125 0 9.003906 0 C 13.976562 0 18.007812 4.03125 18.007812 9.003906 Z M 18.007812 9.003906 "/>
<path style=" stroke:none;fill-rule:nonzero;fill:rgb(100%,100%,100%);fill-opacity:1;" d="M 9.980469 9.589844 C 9.984375 9.582031 9.984375 9.570312 9.988281 9.558594 C 9.988281 9.550781 9.988281 9.539062 9.988281 9.53125 C 9.992188 9.511719 9.992188 9.492188 9.992188 9.472656 C 9.992188 9.464844 9.992188 9.457031 9.992188 9.445312 C 9.992188 9.441406 9.996094 9.433594 9.996094 9.429688 C 9.996094 9.425781 9.996094 9.421875 9.996094 9.417969 C 9.996094 9.394531 9.992188 9.375 9.992188 9.355469 C 9.992188 9.347656 9.992188 9.34375 9.992188 9.339844 L 9.988281 9.328125 C 9.988281 9.320312 9.988281 9.3125 9.988281 9.304688 C 9.984375 9.28125 9.980469 9.261719 9.980469 9.242188 L 9.976562 9.234375 L 9.972656 9.21875 C 9.972656 9.207031 9.972656 9.199219 9.96875 9.1875 C 9.964844 9.171875 9.960938 9.152344 9.957031 9.132812 L 9.953125 9.125 L 9.949219 9.113281 C 9.945312 9.101562 9.941406 9.089844 9.9375 9.078125 C 9.933594 9.0625 9.929688 9.046875 9.921875 9.03125 C 9.921875 9.023438 9.917969 9.015625 9.914062 9.011719 C 9.910156 8.996094 9.90625 8.984375 9.898438 8.96875 C 9.894531 8.957031 9.886719 8.945312 9.882812 8.933594 C 9.878906 8.921875 9.871094 8.914062 9.867188 8.90625 C 9.863281 8.890625 9.855469 8.878906 9.847656 8.867188 C 9.847656 8.863281 9.84375 8.859375 9.839844 8.851562 C 9.835938 8.847656 9.832031 8.839844 9.828125 8.835938 C 9.824219 8.824219 9.816406 8.8125 9.808594 8.800781 C 9.800781 8.792969 9.796875 8.785156 9.792969 8.777344 C 9.785156 8.765625 9.777344 8.753906 9.765625 8.742188 C 9.757812 8.730469 9.75 8.71875 9.738281 8.707031 C 9.734375 8.703125 9.730469 8.695312 9.726562 8.691406 C 9.714844 8.679688 9.707031 8.664062 9.695312 8.652344 C 9.6875 8.644531 9.675781 8.636719 9.667969 8.628906 L 9.660156 8.617188 L 9.652344 8.613281 C 9.640625 8.597656 9.628906 8.585938 9.613281 8.570312 C 9.605469 8.566406 9.597656 8.558594 9.589844 8.554688 C 9.585938 8.550781 9.582031 8.546875 9.578125 8.542969 L 9.574219 8.539062 C 9.554688 8.523438 9.539062 8.511719 9.523438 8.5 C 9.515625 8.492188 9.507812 8.488281 9.5 8.484375 L 9.492188 8.476562 L 9.480469 8.46875 C 9.464844 8.457031 9.445312 8.445312 9.425781 8.4375 C 9.425781 8.433594 9.421875 8.429688 9.417969 8.429688 C 9.414062 8.425781 9.40625 8.425781 9.402344 8.421875 L 9.378906 8.410156 C 9.363281 8.402344 9.347656 8.390625 9.332031 8.382812 C 9.320312 8.378906 9.308594 8.375 9.300781 8.371094 C 9.289062 8.367188 9.28125 8.363281 9.269531 8.359375 C 9.257812 8.351562 9.246094 8.347656 9.230469 8.34375 L 9.230469 4.160156 L 8.449219 4.160156 L 8.449219 5.339844 L 7.648438 4.539062 L 7.097656 5.089844 L 8.449219 6.445312 L 8.449219 8.34375 C 8.433594 8.347656 8.421875 8.351562 8.410156 8.359375 C 8.398438 8.363281 8.390625 8.367188 8.382812 8.371094 C 8.371094 8.375 8.359375 8.378906 8.351562 8.386719 C 8.332031 8.390625 8.316406 8.402344 8.300781 8.410156 C 8.292969 8.414062 8.285156 8.417969 8.28125 8.421875 C 8.273438 8.425781 8.269531 8.425781 8.261719 8.429688 C 8.257812 8.433594 8.257812 8.433594 8.253906 8.4375 C 8.234375 8.445312 8.21875 8.457031 8.199219 8.46875 L 8.1875 8.476562 L 8.183594 8.480469 C 8.175781 8.488281 8.167969 8.492188 8.15625 8.5 C 8.140625 8.511719 8.125 8.523438 8.109375 8.539062 L 8.105469 8.542969 L 8.097656 8.546875 L 8.09375 8.546875 L 6.449219 7.597656 L 5.957031 5.75 L 5.199219 5.953125 L 5.492188 7.046875 L 4.472656 6.457031 L 4.082031 7.132812 L 5.101562 7.722656 L 4.007812 8.015625 L 4.210938 8.773438 L 6.058594 8.277344 L 7.703125 9.226562 C 7.703125 9.234375 7.699219 9.246094 7.699219 9.253906 C 7.695312 9.269531 7.695312 9.289062 7.691406 9.304688 C 7.691406 9.3125 7.691406 9.320312 7.691406 9.332031 C 7.6875 9.34375 7.6875 9.359375 7.6875 9.371094 C 7.6875 9.386719 7.6875 9.402344 7.6875 9.417969 C 7.6875 9.421875 7.683594 9.425781 7.683594 9.429688 C 7.683594 9.433594 7.6875 9.4375 7.6875 9.441406 C 7.6875 9.457031 7.6875 9.472656 7.6875 9.488281 C 7.6875 9.503906 7.6875 9.515625 7.691406 9.53125 C 7.691406 9.539062 7.691406 9.546875 7.691406 9.554688 C 7.695312 9.574219 7.695312 9.589844 7.699219 9.605469 C 7.699219 9.617188 7.703125 9.625 7.703125 9.636719 L 6.058594 10.585938 L 4.210938 10.089844 L 4.007812 10.84375 L 5.101562 11.136719 L 4.082031 11.726562 L 4.472656 12.402344 L 5.492188 11.8125 L 5.199219 12.90625 L 5.957031 13.109375 L 6.449219 11.261719 L 8.09375 10.3125 L 8.101562 10.316406 L 8.101562 10.320312 L 8.109375 10.324219 C 8.125 10.335938 8.140625 10.351562 8.15625 10.363281 C 8.167969 10.367188 8.175781 10.375 8.183594 10.378906 L 8.1875 10.382812 C 8.191406 10.386719 8.195312 10.386719 8.199219 10.390625 C 8.21875 10.402344 8.234375 10.414062 8.253906 10.425781 C 8.257812 10.425781 8.257812 10.429688 8.261719 10.429688 C 8.269531 10.433594 8.277344 10.4375 8.285156 10.441406 C 8.289062 10.445312 8.292969 10.449219 8.300781 10.449219 L 8.304688 10.453125 C 8.316406 10.460938 8.328125 10.464844 8.339844 10.46875 C 8.355469 10.476562 8.371094 10.484375 8.386719 10.492188 L 8.394531 10.496094 C 8.402344 10.5 8.414062 10.503906 8.421875 10.507812 L 8.441406 10.511719 L 8.449219 10.515625 L 8.449219 12.414062 L 7.097656 13.769531 L 7.648438 14.320312 L 8.449219 13.519531 L 8.449219 14.699219 L 9.230469 14.699219 L 9.230469 13.519531 L 10.03125 14.320312 L 10.585938 13.769531 L 9.230469 12.414062 L 9.230469 10.515625 L 9.238281 10.511719 L 9.257812 10.507812 C 9.265625 10.503906 9.277344 10.5 9.289062 10.496094 L 9.292969 10.492188 C 9.308594 10.484375 9.328125 10.476562 9.34375 10.46875 C 9.351562 10.464844 9.363281 10.460938 9.375 10.453125 L 9.378906 10.449219 C 9.386719 10.449219 9.390625 10.445312 9.398438 10.441406 C 9.402344 10.4375 9.410156 10.433594 9.417969 10.429688 C 9.421875 10.429688 9.425781 10.425781 9.425781 10.425781 C 9.445312 10.414062 9.464844 10.402344 9.480469 10.390625 L 9.492188 10.382812 L 9.496094 10.378906 C 9.503906 10.375 9.515625 10.367188 9.523438 10.363281 C 9.539062 10.351562 9.554688 10.335938 9.570312 10.324219 L 9.578125 10.316406 L 9.582031 10.316406 L 9.585938 10.3125 L 11.230469 11.261719 L 11.726562 13.109375 L 12.480469 12.90625 L 12.1875 11.8125 L 13.207031 12.402344 L 13.597656 11.726562 L 9.976562 9.632812 C 9.976562 9.621094 9.980469 9.605469 9.980469 9.589844 Z M 9.980469 9.589844 "/>
<path style=" stroke:none;fill-rule:nonzero;fill:rgb(100%,100%,100%);fill-opacity:1;" d="M 11.996094 9.601562 C 12.320312 9.015625 12.316406 8.304688 11.976562 7.726562 C 11.636719 7.148438 11.019531 6.792969 10.351562 6.792969 L 10.351562 7.574219 C 10.742188 7.574219 11.105469 7.78125 11.300781 8.121094 C 11.5 8.457031 11.503906 8.875 11.3125 9.21875 Z M 11.996094 9.601562 "/>
<path style=" stroke:none;fill-rule:nonzero;fill:rgb(100%,100%,100%);fill-opacity:1;" d="M 9.898438 4.148438 L 9.898438 4.929688 C 11.296875 4.929688 12.585938 5.683594 13.273438 6.902344 C 13.960938 8.117188 13.9375 9.613281 13.214844 10.808594 L 13.886719 11.214844 C 14.753906 9.773438 14.78125 7.980469 13.953125 6.515625 C 13.128906 5.054688 11.578125 4.148438 9.898438 4.148438 Z M 9.898438 4.148438 "/>
</g>
</svg>
