<?xml version="1.0" encoding="UTF-8"?>
<svg xmlns="http://www.w3.org/2000/svg" xmlns:xlink="http://www.w3.org/1999/xlink" width="14px" height="14px" viewBox="0 0 14 13" version="1.1">
<g id="surface1">
<path  d="M 10.667969 7.554688 L 6.804688 7.554688 C 6.710938 7.554688 6.632812 7.625 6.632812 7.714844 L 6.632812 9.597656 C 6.632812 9.6875 6.710938 9.757812 6.804688 9.757812 L 10.667969 9.757812 C 10.761719 9.757812 10.835938 9.6875 10.835938 9.597656 L 10.835938 7.714844 C 10.835938 7.625 10.761719 7.554688 10.667969 7.554688 Z M 10.667969 7.554688 "/>
<path  d="M 8.984375 10.722656 L 6.804688 10.722656 C 6.710938 10.722656 6.632812 10.792969 6.632812 10.878906 L 6.632812 12.765625 C 6.632812 12.851562 6.710938 12.921875 6.804688 12.921875 L 8.988281 12.921875 C 9.082031 12.921875 9.15625 12.851562 9.15625 12.765625 L 9.15625 10.878906 C 9.15625 10.792969 9.082031 10.722656 8.984375 10.722656 Z M 8.984375 10.722656 "/>
<path  d="M 12.140625 3.785156 L 6.804688 3.785156 C 6.710938 3.785156 6.632812 3.855469 6.632812 3.945312 L 6.632812 5.828125 C 6.632812 5.917969 6.710938 5.988281 6.804688 5.988281 L 12.140625 5.988281 C 12.234375 5.988281 12.3125 5.917969 12.3125 5.828125 L 12.3125 3.945312 C 12.3125 3.855469 12.234375 3.785156 12.140625 3.785156 Z M 12.140625 3.785156 "/>
<path  d="M 13.617188 0.015625 L 6.804688 0.015625 C 6.710938 0.015625 6.632812 0.0859375 6.632812 0.175781 L 6.632812 2.058594 C 6.632812 2.148438 6.710938 2.21875 6.804688 2.21875 L 13.617188 2.21875 C 13.710938 2.21875 13.785156 2.148438 13.785156 2.058594 L 13.785156 0.175781 C 13.785156 0.0859375 13.710938 0.015625 13.617188 0.015625 Z M 13.617188 0.015625 "/>
<path  d="M 5.65625 8.792969 L 4.5 8.792969 L 4.5 0.269531 C 4.5 0.121094 4.371094 0 4.210938 0 L 1.882812 0 C 1.722656 0 1.59375 0.121094 1.59375 0.269531 L 1.59375 8.792969 L 0.4375 8.792969 C 0.328125 8.792969 0.226562 8.851562 0.175781 8.945312 C 0.128906 9.035156 0.144531 9.148438 0.210938 9.226562 L 2.820312 12.839844 C 2.875 12.902344 2.957031 12.941406 3.046875 12.941406 C 3.132812 12.941406 3.214844 12.902344 3.269531 12.839844 L 5.878906 9.226562 C 5.949219 9.148438 5.964844 9.035156 5.914062 8.945312 C 5.867188 8.851562 5.765625 8.792969 5.65625 8.792969 Z M 5.65625 8.792969 "/>
</g>
</svg>
